<?xml version="1.0" encoding="utf-8"?>
<!-- Generator: Adobe Illustrator 27.0.0, SVG Export Plug-In . SVG Version: 6.00 Build 0)  -->
<svg version="1.1" id="Layer_1" xmlns="http://www.w3.org/2000/svg" xmlns:xlink="http://www.w3.org/1999/xlink" x="0px" y="0px"
	 viewBox="0 0 241.39 99.27" style="enable-background:new 0 0 241.39 99.27;" xml:space="preserve">
<g>
	<g>
		<g>
			<g id="XMLID_00000054261887759305762340000007786802640635064252_">
				<g id="XMLID_00000144295652206692179930000000313640730864342658_">
					<path id="XMLID_00000120553588260841402290000008779108645429090987_" d="M49.53,46.96h-11.7l-3.58-8.63l-19.49,0l-3.26,8.63H0
						L17.57,3.37l12.59,0L49.53,46.96z M24.03,13.78l-6.39,16.94h13.42L24.03,13.78z"/>
					<path id="XMLID_00000115492367008569876380000004417320222775751082_" d="M92.02,3.37l9.46,0v43.59H90.61V19.73L78.85,33.4
						h-1.66L65.43,19.73v27.23H54.56V3.37l9.46,0l14,16.17L92.02,3.37z"/>
					<path id="XMLID_00000101813185561532026090000000424301970855041928_" d="M129.01,3.37c15.91,0,24.09,9.9,24.09,21.86
						c0,12.53-7.92,21.73-25.31,21.73h-18.02V3.37L129.01,3.37z M120.63,38.97h7.09c10.93,0,14.19-7.41,14.19-13.81
						c0-7.48-4.03-13.8-14.32-13.8h-6.96V38.97z"/>
				</g>
				<g id="XMLID_00000049213571062428060240000015974422439474722947_">
					<polygon id="XMLID_00000100380264204424614640000000992330976355342248_" points="197.19,13.7 174.72,13.7 161.01,0 210.89,0 
						210.89,49.88 197.19,36.18 					"/>
					<polygon id="XMLID_00000149384356619154414800000012971396637224134036_" points="174.7,36.19 174.7,16.45 160.59,30.55 
						160.59,50.3 180.34,50.3 194.44,36.19 					"/>
				</g>
			</g>
		</g>
		<g>
			<polygon points="74.48,74.85 95.69,74.85 74.48,93.12 74.48,99.27 104.98,99.27 104.98,93.17 83.77,93.17 104.98,74.9 
				104.98,68.75 74.48,68.75 			"/>
			<polygon points="52.01,80.85 43.28,68.75 35.74,68.75 48.93,87.06 48.93,99.27 55.03,99.27 55.03,87.06 68.29,68.75 60.75,68.75 
							"/>
			<g>
				<rect x="113.5" y="68.75" width="30.51" height="6.1"/>
				<g>
					<polygon points="113.5,80.96 113.5,99.27 144.01,99.27 144.01,93.17 119.61,93.17 119.61,87.06 144.01,87.06 144.01,80.96 
											"/>
				</g>
			</g>
			<g>
				<path d="M6.1,87.06h11.26l7.05,12.21h7.05l-7.05-12.21h0c3.37,0,6.1-2.73,6.1-6.1v-6.1c0-3.37-2.73-6.1-6.1-6.1H0v6.1h23.98
					c0.24,0,0.43,0.19,0.43,0.43v5.24c0,0.24-0.19,0.43-0.43,0.43H0v6.1v12.21h6.1V87.06z"/>
			</g>
			<polygon points="177.69,68.76 177.69,89.97 159.42,68.76 153.27,68.76 153.27,99.26 159.37,99.26 159.37,78.05 177.64,99.26 
				183.78,99.26 183.78,68.76 			"/>
		</g>
	</g>
	<g>
		<path d="M230.01,99.26l-4.88-10.16h-15.3l-4.88,10.16h-3.75l14.6-30.52h3.36l14.6,30.52H230.01z M211.43,85.7h12.08l-6.06-12.64
			L211.43,85.7z"/>
		<path d="M237.9,68.75h3.4v30.52h-3.4V68.75z"/>
	</g>
</g>
</svg>
