<?xml version="1.0" encoding="utf-8"?>
<!-- Generator: Adobe Illustrator 25.3.0, SVG Export Plug-In . SVG Version: 6.00 Build 0)  -->
<svg version="1.1" id="Layer_1" xmlns="http://www.w3.org/2000/svg" xmlns:xlink="http://www.w3.org/1999/xlink" x="0px" y="0px"
	 viewBox="0 0 551.53 203.82" style="enable-background:new 0 0 551.53 203.82;" xml:space="preserve">
<style type="text/css">
	.st0{fill:#007C96;}
</style>
<g>
	<g>
		<path d="M213.98,0.31h5.53c2.44,0,3.67,1.1,3.67,3.51v1.89c0,1.44-0.68,2.46-2.02,2.99c1.73,0.31,2.6,1.42,2.6,3.17v1.89
			c0,2.39-1.36,4.01-4.43,4.01h-5.35V0.31z M218.81,7.6c0.97,0,1.39-0.47,1.39-1.39V4.09c0-0.87-0.29-1.23-1.15-1.23h-2.07V7.6
			H218.81z M219.2,15.23c1.18,0,1.57-0.58,1.57-1.49v-2.07c0-1.05-0.5-1.52-1.49-1.52h-2.31v5.09H219.2z"/>
		<path d="M235.84,0.31v12.95c0,2.99-1.57,4.82-5.09,4.82s-5.08-1.83-5.08-4.82V0.31h2.99v13.11c0,1.47,0.6,2.04,2.1,2.04
			s2.1-0.58,2.1-1.99V0.31H235.84z"/>
		<path d="M241.71,18.09c-1.18,0-2.75-0.26-3.7-0.6l0.39-2.54c0.81,0.31,1.86,0.52,2.94,0.52c1.83,0,2.44-0.76,2.44-2.36
			c0-1.94-0.34-2.18-2.23-2.86c-3.28-1.18-3.75-2.44-3.75-5.48c0-3.41,1.7-4.77,4.85-4.77c1.49,0,2.73,0.24,3.67,0.6l-0.37,2.54
			c-0.97-0.31-1.89-0.52-2.99-0.52c-1.62,0-2.18,0.55-2.18,2.07c0,1.62,0.13,1.81,2.33,2.73c2.96,1.23,3.64,1.89,3.64,5.56
			C246.77,16.25,245.04,18.09,241.71,18.09z"/>
		<path d="M248.68,17.77V0.31h2.99v17.46H248.68z"/>
		<path d="M254.37,0.31h2.94l4.95,11.12V0.31h2.91v17.46h-2.94l-4.98-11.12v11.12h-2.88V0.31z"/>
		<path d="M267.79,17.77V0.31h8.49v2.62h-5.51V7.6h5.03v2.62h-5.03v4.93h5.51v2.62H267.79z"/>
		<path d="M281.81,18.09c-1.18,0-2.75-0.26-3.7-0.6l0.39-2.54c0.81,0.31,1.86,0.52,2.94,0.52c1.83,0,2.44-0.76,2.44-2.36
			c0-1.94-0.34-2.18-2.23-2.86c-3.28-1.18-3.75-2.44-3.75-5.48c0-3.41,1.7-4.77,4.85-4.77c1.49,0,2.73,0.24,3.67,0.6l-0.37,2.54
			c-0.97-0.31-1.89-0.52-2.99-0.52c-1.62,0-2.18,0.55-2.18,2.07c0,1.62,0.13,1.81,2.33,2.73c2.96,1.23,3.64,1.89,3.64,5.56
			C286.87,16.25,285.14,18.09,281.81,18.09z"/>
		<path d="M291.8,18.09c-1.18,0-2.75-0.26-3.7-0.6l0.39-2.54c0.81,0.31,1.86,0.52,2.94,0.52c1.83,0,2.44-0.76,2.44-2.36
			c0-1.94-0.34-2.18-2.23-2.86c-3.28-1.18-3.75-2.44-3.75-5.48c0-3.41,1.7-4.77,4.85-4.77c1.49,0,2.73,0.24,3.67,0.6l-0.37,2.54
			c-0.97-0.31-1.89-0.52-2.99-0.52c-1.62,0-2.18,0.55-2.18,2.07c0,1.62,0.13,1.81,2.33,2.73c2.96,1.23,3.64,1.89,3.64,5.56
			C296.86,16.25,295.13,18.09,291.8,18.09z"/>
		<path d="M309.17,0.31c3.17,0,4.46,1.39,4.46,4.35v2.15c0,1.94-0.76,3.33-2.31,3.96l3.2,7h-3.41l-2.88-6.61h-1.6v6.61h-2.99V0.31
			H309.17z M310.64,4.69c0-1.26-0.55-1.78-1.68-1.78h-2.33v5.66h2.33c1.13,0,1.68-0.52,1.68-1.78V4.69z"/>
		<path d="M316.17,17.77V0.31h8.49v2.62h-5.51V7.6h5.03v2.62h-5.03v4.93h5.51v2.62H316.17z"/>
		<path d="M329.77,0.31h3.36l4.06,17.46h-3.07l-0.76-3.85h-3.85l-0.73,3.85h-3.07L329.77,0.31z M332.92,11.27l-1.47-7.89l-1.47,7.89
			H332.92z"/>
		<path d="M343.53,0.31c3.57,0,4.93,2.04,4.93,5.22v7.03c0,3.17-1.36,5.22-4.93,5.22h-4.9V0.31H343.53z M343.27,15.15
			c1.7,0,2.2-0.81,2.2-2.49V5.43c0-1.68-0.5-2.49-2.2-2.49h-1.65v12.22H343.27z"/>
		<path d="M356.4,0.31h3.2l-3.77,10.72v6.74h-2.99v-6.74l-3.77-10.72h3.2l2.07,7.29L356.4,0.31z"/>
	</g>
	<g>
		<path d="M61.32,181.76h-2.38l-0.11-9.17l-2.1,6.06h-2.36l-2.1-6.06l-0.11,9.17h-2.38l0.36-14.27h2.46l2.94,8.55l2.93-8.55h2.46
			L61.32,181.76z"/>
		<path d="M63.05,171.49c0-2.46,1.09-4.26,4.2-4.26s4.18,1.8,4.18,4.26v6.26c0,2.46-1.07,4.26-4.18,4.26s-4.2-1.8-4.2-4.26V171.49z
			 M65.49,177.99c0,1.24,0.47,1.93,1.76,1.93s1.74-0.69,1.74-1.93v-6.71c0-1.26-0.43-1.95-1.74-1.95s-1.76,0.69-1.76,1.95V177.99z"
			/>
		<path d="M73.35,167.49h2.4l4.05,9.08v-9.08h2.38v14.27h-2.4l-4.07-9.08v9.08h-2.36V167.49z"/>
		<path d="M88.6,169.63v12.13h-2.44v-12.13h-2.7v-2.14h7.84v2.14H88.6z"/>
		<path d="M98.45,181.76v-6.13h-3.43v6.13h-2.44v-14.27h2.44v6h3.43v-6h2.44v14.27H98.45z"/>
		<path d="M105.74,182.01c-0.96,0-2.25-0.21-3.02-0.49l0.32-2.08c0.66,0.26,1.52,0.43,2.4,0.43c1.5,0,1.99-0.62,1.99-1.93
			c0-1.58-0.28-1.78-1.82-2.33c-2.68-0.96-3.06-1.99-3.06-4.48c0-2.79,1.39-3.9,3.96-3.9c1.22,0,2.23,0.19,3,0.49l-0.3,2.08
			c-0.79-0.26-1.54-0.43-2.44-0.43c-1.33,0-1.78,0.45-1.78,1.69c0,1.33,0.11,1.48,1.91,2.23c2.42,1.01,2.98,1.54,2.98,4.54
			C109.87,180.51,108.46,182.01,105.74,182.01z"/>
	</g>
	<g>
		<path class="st0" d="M68.45,88.35l-5.98,4.75l-1.64-2.11l8.03-6.86h2.87v39.05h-3.28V88.35z"/>
		<path class="st0" d="M79.24,112.92c0-4.98,2.4-7.51,6.57-9.85c-4.46-2.81-5.75-5.45-5.75-9.26v-1.64c0-5.39,2.76-8.74,8.97-8.74
			s8.97,3.34,8.97,8.74v1.64c0,3.81-1.29,6.45-5.75,9.26c4.16,2.35,6.57,4.87,6.57,9.85v1.82c0,6.04-3.28,9.15-9.79,9.15
			c-6.51,0-9.79-3.11-9.79-9.15V112.92z M89.04,121.07c4.34,0,6.51-1.64,6.51-6.39v-1.76c0-3.99-1.58-5.63-6.51-8.39
			c-4.93,2.76-6.51,4.4-6.51,8.39v1.76C82.53,119.43,84.7,121.07,89.04,121.07z M94.78,94.04v-1.99c0-3.75-1.52-5.81-5.75-5.81
			c-4.22,0-5.75,2.05-5.75,5.81v1.99c0,3.81,1.88,5.16,5.75,7.74C92.91,99.2,94.78,97.85,94.78,94.04z"/>
	</g>
	<g>
		<path d="M267.85,181.76h-2.38l-0.11-9.17l-2.1,6.06h-2.36l-2.1-6.06l-0.11,9.17h-2.38l0.36-14.27h2.46l2.94,8.55l2.93-8.55h2.46
			L267.85,181.76z"/>
		<path d="M269.58,171.49c0-2.46,1.09-4.26,4.2-4.26s4.18,1.8,4.18,4.26v6.26c0,2.46-1.07,4.26-4.18,4.26s-4.2-1.8-4.2-4.26V171.49z
			 M272.02,177.99c0,1.24,0.47,1.93,1.76,1.93s1.74-0.69,1.74-1.93v-6.71c0-1.26-0.43-1.95-1.74-1.95s-1.76,0.69-1.76,1.95V177.99z"
			/>
		<path d="M279.88,167.49h2.4l4.05,9.08v-9.08h2.38v14.27h-2.4l-4.07-9.08v9.08h-2.36V167.49z"/>
		<path d="M295.13,169.63v12.13h-2.44v-12.13h-2.7v-2.14h7.84v2.14H295.13z"/>
		<path d="M304.98,181.76v-6.13h-3.43v6.13h-2.44v-14.27h2.44v6h3.43v-6h2.44v14.27H304.98z"/>
		<path d="M312.27,182.01c-0.96,0-2.25-0.21-3.02-0.49l0.32-2.08c0.66,0.26,1.52,0.43,2.4,0.43c1.5,0,1.99-0.62,1.99-1.93
			c0-1.58-0.28-1.78-1.82-2.33c-2.68-0.96-3.06-1.99-3.06-4.48c0-2.79,1.39-3.9,3.96-3.9c1.22,0,2.23,0.19,3,0.49l-0.3,2.08
			c-0.79-0.26-1.54-0.43-2.44-0.43c-1.33,0-1.78,0.45-1.78,1.69c0,1.33,0.11,1.48,1.91,2.23c2.42,1.01,2.98,1.54,2.98,4.54
			C316.4,180.51,314.99,182.01,312.27,182.01z"/>
	</g>
	<g>
		<path d="M412.57,181.76v-14.27h6.94v2.14h-4.5v3.81h4.11v2.14h-4.11v4.03h4.5v2.14H412.57z"/>
		<path d="M421.33,167.49h2.4l4.05,9.08v-9.08h2.38v14.27h-2.4l-4.07-9.08v9.08h-2.36V167.49z"/>
		<path d="M436.58,169.63v12.13h-2.44v-12.13h-2.7v-2.14h7.84v2.14H436.58z"/>
		<path d="M440.56,181.76v-14.27h6.94v2.14H443v3.81h4.11v2.14H443v4.03h4.5v2.14H440.56z"/>
		<path d="M453.84,167.49c2.59,0,3.64,1.13,3.64,3.56v1.76c0,1.58-0.62,2.72-1.88,3.24l2.61,5.72h-2.79l-2.36-5.4h-1.31v5.4h-2.44
			v-14.27H453.84z M455.04,171.07c0-1.03-0.45-1.46-1.37-1.46h-1.91v4.63h1.91c0.92,0,1.37-0.43,1.37-1.46V171.07z"/>
		<path d="M463.87,167.49c2.59,0,3.64,1.13,3.64,3.56v1.76c0,2.23-1.24,3.56-3.75,3.56H462v5.4h-2.44v-14.27H463.87z M465.07,171.07
			c0-1.03-0.45-1.46-1.37-1.46H462v4.63h1.69c0.92,0,1.37-0.43,1.37-1.46V171.07z"/>
		<path d="M473.48,167.49c2.59,0,3.64,1.13,3.64,3.56v1.76c0,1.58-0.62,2.72-1.88,3.24l2.61,5.72h-2.79l-2.36-5.4h-1.31v5.4h-2.44
			v-14.27H473.48z M474.68,171.07c0-1.03-0.45-1.46-1.37-1.46h-1.91v4.63h1.91c0.92,0,1.37-0.43,1.37-1.46V171.07z"/>
		<path d="M479.27,181.76v-14.27h2.44v14.27H479.27z"/>
		<path d="M486.61,182.01c-0.96,0-2.25-0.21-3.02-0.49l0.32-2.08c0.66,0.26,1.52,0.43,2.4,0.43c1.5,0,1.99-0.62,1.99-1.93
			c0-1.58-0.28-1.78-1.82-2.33c-2.68-0.96-3.06-1.99-3.06-4.48c0-2.79,1.39-3.9,3.96-3.9c1.22,0,2.23,0.19,3,0.49l-0.3,2.08
			c-0.79-0.26-1.54-0.43-2.44-0.43c-1.33,0-1.78,0.45-1.78,1.69c0,1.33,0.11,1.48,1.91,2.23c2.42,1.01,2.98,1.54,2.98,4.54
			C490.75,180.51,489.33,182.01,486.61,182.01z"/>
		<path d="M492.24,181.76v-14.27h6.94v2.14h-4.5v3.81h4.11v2.14h-4.11v4.03h4.5v2.14H492.24z"/>
		<path d="M504.84,171.6c0-3.15,1.46-4.37,4.52-4.37c1.22,0,2.42,0.17,3.38,0.51l-0.32,2.06c-0.77-0.24-1.74-0.43-2.83-0.43
			c-1.69,0-2.31,0.58-2.31,2.29v6.32c0,1.26,0.45,1.95,1.97,1.95c0.36,0,0.88-0.02,1.2-0.11v-4.91h2.29v6.56
			c-0.73,0.28-2.4,0.54-3.73,0.54c-3.04,0-4.18-1.41-4.18-4.05V171.6z"/>
		<path d="M519.25,167.49c2.59,0,3.64,1.13,3.64,3.56v1.76c0,1.58-0.62,2.72-1.88,3.24l2.61,5.72h-2.79l-2.36-5.4h-1.31v5.4h-2.44
			v-14.27H519.25z M520.45,171.07c0-1.03-0.45-1.46-1.37-1.46h-1.91v4.63h1.91c0.92,0,1.37-0.43,1.37-1.46V171.07z"/>
		<path d="M527.43,167.49h2.74l3.32,14.27h-2.51l-0.62-3.15h-3.15l-0.6,3.15h-2.51L527.43,167.49z M530,176.44l-1.2-6.45l-1.2,6.45
			H530z"/>
		<path d="M538.68,167.49c2.91,0,4.03,1.67,4.03,4.26v5.74c0,2.59-1.11,4.26-4.03,4.26h-4.01v-14.27H538.68z M538.47,179.61
			c1.39,0,1.8-0.66,1.8-2.04v-5.91c0-1.37-0.41-2.04-1.8-2.04h-1.35v9.98H538.47z"/>
		<path d="M544.59,181.76v-14.27h6.94v2.14h-4.5v3.81h4.11v2.14h-4.11v4.03h4.5v2.14H544.59z"/>
	</g>
	<g>
		<path d="M429.31,194.96c0-1.82,0.8-2.88,3.26-2.88c0.7,0,1.97,0.12,2.73,0.3v11.31l-0.97,0.13v-3.88
			c-0.67,0.35-1.57,0.62-2.68,0.62c-1.64,0-2.34-0.94-2.34-2.38V194.96z M434.33,193.14c-0.64-0.12-1.29-0.17-1.87-0.17
			c-1.76,0-2.17,0.74-2.17,1.96v3.28c0,0.97,0.44,1.42,1.51,1.42c0.99,0,1.77-0.27,2.54-0.7V193.14z"/>
		<path d="M438.36,192.25v6.59c0,0.6,0.32,0.82,0.89,0.82c0.67,0,2.11-0.4,3.13-0.94v-6.47h0.97v8.14h-0.85l-0.07-0.74
			c-0.87,0.42-2.33,0.9-3.31,0.9c-1.27,0-1.72-0.72-1.72-1.84v-6.47H438.36z"/>
		<path d="M450.95,200.39h-0.84l-0.07-0.64c-0.79,0.49-1.69,0.8-2.76,0.8c-1.44,0-2.11-0.82-2.11-2.27c0-1.72,0.79-2.26,2.39-2.26
			h2.41v-1.59c0-1.12-0.58-1.49-1.92-1.49c-0.8,0-1.66,0.12-2.41,0.27l-0.15-0.82c0.65-0.18,1.67-0.32,2.51-0.32
			c2.11,0,2.94,0.84,2.94,2.36V200.39z M449.98,196.9h-2.38c-1.12,0-1.46,0.33-1.46,1.4c0,0.95,0.2,1.39,1.34,1.39
			c0.8,0,1.76-0.32,2.49-0.84V196.9z"/>
		<path d="M452.95,200.39v-11.47l0.97-0.13v11.61H452.95z"/>
		<path d="M456.1,190.71v-1.79h0.97v1.79H456.1z M456.1,200.39v-8.14h0.97v8.14H456.1z"/>
		<path d="M463.44,200.24c-0.47,0.18-1.12,0.32-1.71,0.32c-1.29,0-1.84-0.47-1.84-1.76v-5.72h-1.57v-0.84h1.57v-1.92l0.97-0.13v2.06
			h2.49l-0.1,0.84h-2.39v5.62c0,0.72,0.1,1.02,0.94,1.02c0.45,0,0.97-0.08,1.46-0.23L463.44,200.24z"/>
		<path d="M467.94,200.39l-1.2,3.29h-0.95l1.22-3.29h-0.55l-2.76-8.14h0.99l2.51,7.46l2.53-7.46h0.99L467.94,200.39z"/>
		<path d="M480.06,200.39h-0.84l-0.07-0.64c-0.79,0.49-1.69,0.8-2.76,0.8c-1.44,0-2.11-0.82-2.11-2.27c0-1.72,0.79-2.26,2.39-2.26
			h2.41v-1.59c0-1.12-0.58-1.49-1.92-1.49c-0.8,0-1.66,0.12-2.41,0.27l-0.15-0.82c0.65-0.18,1.67-0.32,2.51-0.32
			c2.11,0,2.94,0.84,2.94,2.36V200.39z M479.09,196.9h-2.38c-1.12,0-1.46,0.33-1.46,1.4c0,0.95,0.2,1.39,1.34,1.39
			c0.8,0,1.76-0.32,2.49-0.84V196.9z"/>
		<path d="M484.21,200.56c-0.82,0-1.79-0.17-2.39-0.42l0.17-0.79c0.7,0.22,1.56,0.33,2.16,0.33c1.5,0,1.81-0.28,1.81-1.32
			c0-1.17-0.03-1.29-1.89-1.72c-2.04-0.49-2.21-0.99-2.21-2.48c0-1.35,0.65-2.09,2.66-2.09c0.75,0,1.67,0.1,2.31,0.28l-0.1,0.82
			c-0.65-0.13-1.61-0.23-2.27-0.23c-1.42,0-1.62,0.37-1.62,1.25c0,1.12,0.07,1.24,1.57,1.62c2.39,0.6,2.53,0.99,2.53,2.51
			C486.92,199.81,486.38,200.56,484.21,200.56z"/>
		<path d="M490.81,200.56c-0.82,0-1.79-0.17-2.39-0.42l0.17-0.79c0.7,0.22,1.56,0.33,2.16,0.33c1.5,0,1.81-0.28,1.81-1.32
			c0-1.17-0.03-1.29-1.89-1.72c-2.04-0.49-2.21-0.99-2.21-2.48c0-1.35,0.65-2.09,2.66-2.09c0.75,0,1.67,0.1,2.31,0.28l-0.1,0.82
			c-0.65-0.13-1.61-0.23-2.27-0.23c-1.42,0-1.62,0.37-1.62,1.25c0,1.12,0.07,1.24,1.57,1.62c2.39,0.6,2.53,0.99,2.53,2.51
			C493.52,199.81,492.99,200.56,490.81,200.56z"/>
		<path d="M496.16,192.25v6.59c0,0.6,0.32,0.82,0.89,0.82c0.67,0,2.11-0.4,3.13-0.94v-6.47h0.97v8.14h-0.85l-0.07-0.74
			c-0.87,0.42-2.33,0.9-3.31,0.9c-1.27,0-1.72-0.72-1.72-1.84v-6.47H496.16z"/>
		<path d="M506.87,193.04c-0.85,0.37-1.79,0.99-2.58,1.5v5.85h-0.97v-8.14h0.87l0.05,1.24c0.87-0.57,1.74-1.12,2.51-1.4
			L506.87,193.04z"/>
		<path d="M513.19,200.39h-0.84l-0.07-0.64c-0.79,0.49-1.69,0.8-2.76,0.8c-1.44,0-2.11-0.82-2.11-2.27c0-1.72,0.79-2.26,2.39-2.26
			h2.41v-1.59c0-1.12-0.58-1.49-1.92-1.49c-0.8,0-1.66,0.12-2.41,0.27l-0.15-0.82c0.65-0.18,1.67-0.32,2.51-0.32
			c2.11,0,2.94,0.84,2.94,2.36V200.39z M512.22,196.9h-2.38c-1.12,0-1.46,0.33-1.46,1.4c0,0.95,0.2,1.39,1.34,1.39
			c0.8,0,1.76-0.32,2.49-0.84V196.9z"/>
		<path d="M520.18,200.39v-6.59c0-0.6-0.32-0.82-0.89-0.82c-0.67,0-2.11,0.4-3.13,0.94v6.47h-0.97v-8.14h0.85l0.07,0.74
			c0.87-0.42,2.32-0.9,3.31-0.9c1.27,0,1.72,0.72,1.72,1.84v6.47H520.18z"/>
		<path d="M523.7,197.79c0,1.45,0.58,1.91,2.11,1.91c0.49,0,1.05-0.05,1.74-0.17l0.12,0.8c-0.57,0.15-1.3,0.23-1.86,0.23
			c-2.29,0-3.08-1.05-3.08-2.81v-2.86c0-1.76,0.79-2.81,3.08-2.81c0.55,0,1.29,0.08,1.86,0.23l-0.12,0.8
			c-0.69-0.12-1.25-0.17-1.74-0.17c-1.52,0-2.11,0.45-2.11,1.91V197.79z"/>
		<path d="M531.88,199.71c0.84,0,1.77-0.17,2.58-0.38l0.17,0.79c-0.75,0.27-1.82,0.45-2.81,0.45c-2.29,0-3.03-1.19-3.03-2.96v-2.56
			c0-1.67,0.75-2.96,3.04-2.96s2.96,1.29,2.96,2.96v1.57h-5.03v1.02C529.76,199.09,530.26,199.71,531.88,199.71z M529.76,195.75
			h4.08v-0.74c0-1.37-0.48-2.09-2.01-2.09c-1.52,0-2.07,0.72-2.07,2.09V195.75z"/>
	</g>
	<g>
		<path d="M233.9,198.05c0,1.49-0.67,2.51-2.51,2.51c-0.85,0-1.57-0.08-2.51-0.27v3.4l-0.97,0.13v-11.57h0.89l0.05,0.77
			c0.82-0.62,1.84-0.94,2.74-0.94c1.59,0,2.31,0.79,2.31,2.26V198.05z M228.89,199.41c0.89,0.18,1.76,0.28,2.54,0.28
			c1.07,0,1.5-0.54,1.5-1.64v-3.71c0-0.94-0.3-1.39-1.4-1.39c-1,0-1.87,0.42-2.64,1.04V199.41z"/>
		<path d="M235.79,200.39v-11.47l0.97-0.13v11.61H235.79z"/>
		<path d="M244.37,200.39h-0.84l-0.07-0.64c-0.79,0.49-1.69,0.8-2.76,0.8c-1.44,0-2.11-0.82-2.11-2.27c0-1.72,0.79-2.26,2.39-2.26
			h2.41v-1.59c0-1.12-0.58-1.49-1.92-1.49c-0.8,0-1.66,0.12-2.41,0.27l-0.15-0.82c0.65-0.18,1.67-0.32,2.51-0.32
			c2.11,0,2.94,0.84,2.94,2.36V200.39z M243.4,196.9h-2.38c-1.12,0-1.46,0.33-1.46,1.4c0,0.95,0.2,1.39,1.34,1.39
			c0.8,0,1.76-0.32,2.49-0.84V196.9z"/>
		<path d="M251.36,200.39v-6.59c0-0.6-0.32-0.82-0.89-0.82c-0.67,0-2.11,0.4-3.13,0.94v6.47h-0.97v-8.14h0.85l0.07,0.74
			c0.87-0.42,2.33-0.9,3.31-0.9c1.27,0,1.72,0.72,1.72,1.84v6.47H251.36z"/>
		<path d="M259.4,200.39v-6.59c0-0.6-0.32-0.82-0.89-0.82c-0.67,0-2.11,0.4-3.13,0.94v6.47h-0.97v-8.14h0.85l0.07,0.74
			c0.87-0.42,2.33-0.9,3.31-0.9c1.27,0,1.72,0.72,1.72,1.84v6.47H259.4z"/>
		<path d="M265.14,199.71c0.84,0,1.77-0.17,2.58-0.38l0.17,0.79c-0.75,0.27-1.82,0.45-2.81,0.45c-2.29,0-3.03-1.19-3.03-2.96v-2.56
			c0-1.67,0.75-2.96,3.04-2.96s2.96,1.29,2.96,2.96v1.57h-5.03v1.02C263.02,199.09,263.52,199.71,265.14,199.71z M263.02,195.75
			h4.08v-0.74c0-1.37-0.48-2.09-2.01-2.09c-1.52,0-2.07,0.72-2.07,2.09V195.75z"/>
		<path d="M269.56,194.59c0-1.49,0.67-2.51,2.51-2.51c0.85,0,1.57,0.08,2.51,0.27v-3.43l0.97-0.13v11.61h-0.89l-0.05-0.77
			c-0.82,0.62-1.84,0.94-2.74,0.94c-1.59,0-2.31-0.79-2.31-2.26V194.59z M274.57,193.24c-0.89-0.18-1.76-0.29-2.54-0.29
			c-1.07,0-1.5,0.54-1.5,1.64v3.71c0,0.94,0.3,1.39,1.41,1.39c1,0,1.87-0.42,2.64-1.04V193.24z"/>
		<path d="M286.16,200.39h-0.84l-0.07-0.64c-0.79,0.49-1.69,0.8-2.76,0.8c-1.44,0-2.11-0.82-2.11-2.27c0-1.72,0.79-2.26,2.39-2.26
			h2.41v-1.59c0-1.12-0.58-1.49-1.92-1.49c-0.8,0-1.66,0.12-2.41,0.27l-0.15-0.82c0.65-0.18,1.67-0.32,2.51-0.32
			c2.11,0,2.94,0.84,2.94,2.36V200.39z M285.19,196.9h-2.38c-1.12,0-1.46,0.33-1.46,1.4c0,0.95,0.2,1.39,1.34,1.39
			c0.8,0,1.76-0.32,2.49-0.84V196.9z"/>
		<path d="M291.24,200.39h-1.49l-2.76-8.14h0.99l2.51,7.46l2.53-7.46H294L291.24,200.39z"/>
		<path d="M300.36,200.39h-0.84l-0.07-0.64c-0.79,0.49-1.69,0.8-2.76,0.8c-1.44,0-2.11-0.82-2.11-2.27c0-1.72,0.79-2.26,2.39-2.26
			h2.41v-1.59c0-1.12-0.58-1.49-1.92-1.49c-0.8,0-1.66,0.12-2.41,0.27l-0.15-0.82c0.65-0.18,1.67-0.32,2.51-0.32
			c2.11,0,2.94,0.84,2.94,2.36V200.39z M299.39,196.9h-2.38c-1.12,0-1.46,0.33-1.46,1.4c0,0.95,0.2,1.39,1.34,1.39
			c0.8,0,1.76-0.32,2.49-0.84V196.9z"/>
		<path d="M302.36,190.71v-1.79h0.97v1.79H302.36z M302.36,200.39v-8.14h0.97v8.14H302.36z"/>
		<path d="M305.51,200.39v-11.47l0.97-0.13v11.61H305.51z"/>
		<path d="M314.09,200.39h-0.84l-0.07-0.64c-0.79,0.49-1.69,0.8-2.76,0.8c-1.44,0-2.11-0.82-2.11-2.27c0-1.72,0.79-2.26,2.39-2.26
			h2.41v-1.59c0-1.12-0.58-1.49-1.92-1.49c-0.8,0-1.66,0.12-2.41,0.27l-0.15-0.82c0.65-0.18,1.67-0.32,2.51-0.32
			c2.11,0,2.94,0.84,2.94,2.36V200.39z M313.12,196.9h-2.38c-1.12,0-1.46,0.33-1.46,1.4c0,0.95,0.2,1.39,1.34,1.39
			c0.8,0,1.76-0.32,2.49-0.84V196.9z"/>
		<path d="M322.08,197.69c0,1.82-0.8,2.88-3.26,2.88c-0.7,0-1.97-0.12-2.73-0.3v-11.34l0.97-0.13v3.91
			c0.67-0.35,1.57-0.62,2.68-0.62c1.64,0,2.34,0.94,2.34,2.38V197.69z M317.06,199.51c0.64,0.12,1.29,0.17,1.87,0.17
			c1.76,0,2.17-0.74,2.17-1.96v-3.28c0-0.97-0.43-1.42-1.5-1.42c-0.99,0-1.77,0.27-2.54,0.7V199.51z"/>
		<path d="M323.92,190.71v-1.79h0.97v1.79H323.92z M323.92,200.39v-8.14h0.97v8.14H323.92z"/>
		<path d="M327.06,200.39v-11.47l0.97-0.13v11.61H327.06z"/>
		<path d="M330.21,190.71v-1.79h0.97v1.79H330.21z M330.21,200.39v-8.14h0.97v8.14H330.21z"/>
		<path d="M337.55,200.24c-0.47,0.18-1.12,0.32-1.71,0.32c-1.29,0-1.84-0.47-1.84-1.76v-5.72h-1.57v-0.84H334v-1.92l0.97-0.13v2.06
			h2.49l-0.1,0.84h-2.39v5.62c0,0.72,0.1,1.02,0.94,1.02c0.45,0,0.97-0.08,1.46-0.23L337.55,200.24z"/>
		<path d="M342.04,200.39l-1.2,3.29h-0.95l1.22-3.29h-0.55l-2.76-8.14h0.99l2.51,7.46l2.53-7.46h0.99L342.04,200.39z"/>
	</g>
	<g>
		<path d="M5.99,198.05c0,1.49-0.67,2.51-2.51,2.51c-0.85,0-1.57-0.08-2.51-0.27v3.4L0,203.82v-11.57h0.89l0.05,0.77
			c0.82-0.62,1.84-0.94,2.74-0.94c1.59,0,2.31,0.79,2.31,2.26V198.05z M0.97,199.41c0.89,0.18,1.76,0.28,2.54,0.28
			c1.07,0,1.5-0.54,1.5-1.64v-3.71c0-0.94-0.3-1.39-1.4-1.39c-1,0-1.87,0.42-2.64,1.04V199.41z"/>
		<path d="M7.88,200.39v-11.47l0.97-0.13v11.61H7.88z"/>
		<path d="M16.45,200.39h-0.84l-0.07-0.64c-0.79,0.49-1.69,0.8-2.76,0.8c-1.44,0-2.11-0.82-2.11-2.27c0-1.72,0.79-2.26,2.39-2.26
			h2.41v-1.59c0-1.12-0.58-1.49-1.92-1.49c-0.8,0-1.66,0.12-2.41,0.27L11,192.4c0.65-0.18,1.67-0.32,2.51-0.32
			c2.11,0,2.94,0.84,2.94,2.36V200.39z M15.48,196.9h-2.38c-1.12,0-1.46,0.33-1.46,1.4c0,0.95,0.2,1.39,1.34,1.39
			c0.8,0,1.76-0.32,2.49-0.84V196.9z"/>
		<path d="M23.44,200.39v-6.59c0-0.6-0.32-0.82-0.89-0.82c-0.67,0-2.11,0.4-3.13,0.94v6.47h-0.97v-8.14h0.85l0.07,0.74
			c0.87-0.42,2.33-0.9,3.31-0.9c1.27,0,1.72,0.72,1.72,1.84v6.47H23.44z"/>
		<path d="M31.49,200.39v-6.59c0-0.6-0.32-0.82-0.89-0.82c-0.67,0-2.11,0.4-3.13,0.94v6.47H26.5v-8.14h0.85l0.07,0.74
			c0.87-0.42,2.33-0.9,3.31-0.9c1.27,0,1.72,0.72,1.72,1.84v6.47H31.49z"/>
		<path d="M37.22,199.71c0.84,0,1.77-0.17,2.58-0.38l0.17,0.79c-0.75,0.27-1.82,0.45-2.81,0.45c-2.29,0-3.03-1.19-3.03-2.96v-2.56
			c0-1.67,0.75-2.96,3.04-2.96s2.96,1.29,2.96,2.96v1.57H35.1v1.02C35.1,199.09,35.6,199.71,37.22,199.71z M35.1,195.75h4.08v-0.74
			c0-1.37-0.48-2.09-2.01-2.09c-1.52,0-2.07,0.72-2.07,2.09V195.75z"/>
		<path d="M41.64,194.59c0-1.49,0.67-2.51,2.51-2.51c0.85,0,1.57,0.08,2.51,0.27v-3.43l0.97-0.13v11.61h-0.89l-0.05-0.77
			c-0.82,0.62-1.84,0.94-2.74,0.94c-1.59,0-2.31-0.79-2.31-2.26V194.59z M46.65,193.24c-0.89-0.18-1.76-0.29-2.54-0.29
			c-1.07,0-1.5,0.54-1.5,1.64v3.71c0,0.94,0.3,1.39,1.41,1.39c1,0,1.87-0.42,2.64-1.04V193.24z"/>
		<path d="M54.95,200.56c-0.82,0-1.79-0.17-2.39-0.42l0.17-0.79c0.7,0.22,1.56,0.33,2.16,0.33c1.5,0,1.81-0.28,1.81-1.32
			c0-1.17-0.03-1.29-1.89-1.72c-2.04-0.49-2.21-0.99-2.21-2.48c0-1.35,0.65-2.09,2.66-2.09c0.75,0,1.67,0.1,2.31,0.28l-0.1,0.82
			c-0.65-0.13-1.61-0.23-2.27-0.23c-1.42,0-1.62,0.37-1.62,1.25c0,1.12,0.07,1.24,1.57,1.62c2.39,0.6,2.53,0.99,2.53,2.51
			C57.66,199.81,57.12,200.56,54.95,200.56z"/>
		<path d="M62.16,200.56c-2.29,0-3.16-1.29-3.16-2.96v-2.56c0-1.67,0.87-2.96,3.16-2.96s3.16,1.29,3.16,2.96v2.56
			C65.32,199.27,64.45,200.56,62.16,200.56z M64.35,195.01c0-1.37-0.67-2.06-2.19-2.06s-2.19,0.69-2.19,2.06v2.62
			c0,1.37,0.67,2.06,2.19,2.06s2.19-0.69,2.19-2.06V195.01z"/>
		<path d="M71.4,189.57c-0.54-0.1-1.02-0.15-1.47-0.15c-0.92,0-1.2,0.35-1.2,1.24v1.59h2.51l-0.1,0.84h-2.41v7.31h-0.97v-7.31h-1.52
			v-0.84h1.52v-1.71c0-1.34,0.82-1.96,2.11-1.96c0.47,0,1.19,0.08,1.67,0.23L71.4,189.57z"/>
		<path d="M76.57,200.24c-0.47,0.18-1.12,0.32-1.71,0.32c-1.29,0-1.84-0.47-1.84-1.76v-5.72h-1.57v-0.84h1.57v-1.92l0.97-0.13v2.06
			h2.49l-0.1,0.84h-2.39v5.62c0,0.72,0.1,1.02,0.94,1.02c0.45,0,0.97-0.08,1.46-0.23L76.57,200.24z"/>
		<path d="M78.88,200.39l-1.86-8.14h0.92l1.67,7.49l2.21-7.49h1.3l2.19,7.49l1.69-7.49h0.92l-1.86,8.14h-1.46l-2.14-7.44l-2.14,7.44
			H78.88z"/>
		<path d="M94.45,200.39h-0.84l-0.07-0.64c-0.79,0.49-1.69,0.8-2.76,0.8c-1.44,0-2.11-0.82-2.11-2.27c0-1.72,0.79-2.26,2.39-2.26
			h2.41v-1.59c0-1.12-0.58-1.49-1.92-1.49c-0.8,0-1.66,0.12-2.41,0.27l-0.15-0.82c0.65-0.18,1.67-0.32,2.51-0.32
			c2.11,0,2.94,0.84,2.94,2.36V200.39z M93.48,196.9H91.1c-1.12,0-1.46,0.33-1.46,1.4c0,0.95,0.2,1.39,1.34,1.39
			c0.8,0,1.76-0.32,2.49-0.84V196.9z"/>
		<path d="M100,193.04c-0.85,0.37-1.79,0.99-2.58,1.5v5.85h-0.97v-8.14h0.87l0.05,1.24c0.87-0.57,1.74-1.12,2.51-1.4L100,193.04z"/>
		<path d="M103.73,199.71c0.84,0,1.77-0.17,2.58-0.38l0.17,0.79c-0.75,0.27-1.82,0.45-2.81,0.45c-2.29,0-3.03-1.19-3.03-2.96v-2.56
			c0-1.67,0.75-2.96,3.04-2.96s2.96,1.29,2.96,2.96v1.57h-5.03v1.02C101.6,199.09,102.1,199.71,103.73,199.71z M101.6,195.75h4.08
			v-0.74c0-1.37-0.48-2.09-2.01-2.09c-1.52,0-2.07,0.72-2.07,2.09V195.75z"/>
		<path d="M113.54,200.56c-0.82,0-1.79-0.17-2.39-0.42l0.17-0.79c0.7,0.22,1.56,0.33,2.16,0.33c1.5,0,1.81-0.28,1.81-1.32
			c0-1.17-0.03-1.29-1.89-1.72c-2.04-0.49-2.21-0.99-2.21-2.48c0-1.35,0.65-2.09,2.66-2.09c0.75,0,1.67,0.1,2.31,0.28l-0.1,0.82
			c-0.65-0.13-1.61-0.23-2.27-0.23c-1.42,0-1.62,0.37-1.62,1.25c0,1.12,0.07,1.24,1.57,1.62c2.39,0.6,2.53,0.99,2.53,2.51
			C116.25,199.81,115.72,200.56,113.54,200.56z"/>
		<path d="M122.2,200.24c-0.47,0.18-1.12,0.32-1.71,0.32c-1.29,0-1.84-0.47-1.84-1.76v-5.72h-1.57v-0.84h1.57v-1.92l0.97-0.13v2.06
			h2.49l-0.1,0.84h-2.39v5.62c0,0.72,0.1,1.02,0.94,1.02c0.45,0,0.97-0.08,1.46-0.23L122.2,200.24z"/>
		<path d="M128.94,200.39h-0.84l-0.07-0.64c-0.79,0.49-1.69,0.8-2.76,0.8c-1.44,0-2.11-0.82-2.11-2.27c0-1.72,0.79-2.26,2.39-2.26
			h2.41v-1.59c0-1.12-0.58-1.49-1.92-1.49c-0.8,0-1.66,0.12-2.41,0.27l-0.15-0.82c0.65-0.18,1.67-0.32,2.51-0.32
			c2.11,0,2.94,0.84,2.94,2.36V200.39z M127.97,196.9h-2.38c-1.12,0-1.46,0.33-1.46,1.4c0,0.95,0.2,1.39,1.34,1.39
			c0.8,0,1.76-0.32,2.49-0.84V196.9z"/>
		<path d="M136.94,197.69c0,1.82-0.8,2.88-3.26,2.88c-0.7,0-1.97-0.12-2.73-0.3v-11.34l0.97-0.13v3.91
			c0.67-0.35,1.57-0.62,2.68-0.62c1.64,0,2.34,0.94,2.34,2.38V197.69z M131.92,199.51c0.64,0.12,1.29,0.17,1.87,0.17
			c1.76,0,2.17-0.74,2.17-1.96v-3.28c0-0.97-0.43-1.42-1.5-1.42c-0.99,0-1.77,0.27-2.54,0.7V199.51z"/>
		<path d="M138.77,190.71v-1.79h0.97v1.79H138.77z M138.77,200.39v-8.14h0.97v8.14H138.77z"/>
		<path d="M141.92,200.39v-11.47l0.97-0.13v11.61H141.92z"/>
		<path d="M145.06,190.71v-1.79h0.97v1.79H145.06z M145.06,200.39v-8.14h0.97v8.14H145.06z"/>
		<path d="M152.4,200.24c-0.47,0.18-1.12,0.32-1.71,0.32c-1.29,0-1.84-0.47-1.84-1.76v-5.72h-1.57v-0.84h1.57v-1.92l0.97-0.13v2.06
			h2.49l-0.1,0.84h-2.39v5.62c0,0.72,0.1,1.02,0.94,1.02c0.45,0,0.97-0.08,1.46-0.23L152.4,200.24z"/>
		<path d="M156.9,200.39l-1.2,3.29h-0.95l1.22-3.29h-0.55l-2.76-8.14h0.99l2.51,7.46l2.53-7.46h0.99L156.9,200.39z"/>
	</g>
	<g>
		<g>
			<path d="M114.55,138.84H45.11c-6.24,0-11.31-5.08-11.31-11.31V69.14c0-6.24,5.08-11.31,11.31-11.31h69.44
				c6.24,0,11.31,5.08,11.31,11.31v58.39C125.86,133.77,120.79,138.84,114.55,138.84z M45.11,59.83c-5.14,0-9.31,4.18-9.31,9.31
				v58.39c0,5.14,4.18,9.31,9.31,9.31h69.44c5.14,0,9.31-4.18,9.31-9.31V69.14c0-5.14-4.18-9.31-9.31-9.31H45.11z"/>
		</g>
		<g>
			<rect x="34.8" y="71.46" width="90.07" height="2"/>
		</g>
		<circle cx="44.4" cy="66.36" r="2.18"/>
		<circle cx="52.63" cy="66.36" r="2.18"/>
		<circle cx="60.86" cy="66.36" r="2.18"/>
	</g>
	<g>
		<path class="st0" d="M265.57,120.25l8.74-12.55c3.4-4.87,4.81-7.86,4.81-13.55v-1.47c0-4.46-1.23-6.33-6.04-6.33
			c-1.93,0-4.05,0.41-5.92,1.23l-0.64-2.82c1.76-0.76,4.46-1.35,7.04-1.35c5.81,0,8.86,2.23,8.86,9.03v1.53
			c0,6.57-1.29,9.44-4.98,14.6l-8.5,11.67h13.49v2.93h-16.83V120.25z"/>
		<path class="st0" d="M285.92,109.69l12.78-25.57h4.4v25.68h4.05v2.82h-4.05v10.55h-3.17v-10.55h-14.01V109.69z M299.94,109.81
			V87.59l-10.85,22.22H299.94z"/>
	</g>
	<g>
		<path d="M321.08,138.84h-69.44c-6.24,0-11.31-5.08-11.31-11.31V69.14c0-6.24,5.08-11.31,11.31-11.31h69.44
			c6.24,0,11.31,5.08,11.31,11.31v58.39C332.39,133.77,327.32,138.84,321.08,138.84z M251.64,59.83c-5.14,0-9.31,4.18-9.31,9.31
			v58.39c0,5.14,4.18,9.31,9.31,9.31h69.44c5.14,0,9.31-4.18,9.31-9.31V69.14c0-5.14-4.18-9.31-9.31-9.31H251.64z"/>
	</g>
	<g>
		<rect x="241.33" y="71.46" width="90.07" height="2"/>
	</g>
	<circle cx="250.7" cy="66.36" r="2.18"/>
	<circle cx="258.93" cy="66.36" r="2.18"/>
	<circle cx="267.17" cy="66.36" r="2.18"/>
	<g>
		<path d="M482.05,137.28c-0.09,0-0.18-0.01-0.27-0.04c-18.92-5.26-32.14-22.68-32.14-42.34V75.82c0-0.36,0.19-0.69,0.5-0.87
			l31.41-18.22c0.31-0.18,0.69-0.18,1,0l31.41,18.22c0.31,0.18,0.5,0.51,0.5,0.87V94.9c0,19.67-13.22,37.08-32.14,42.34
			C482.23,137.26,482.14,137.28,482.05,137.28z M451.64,76.4v18.5c0,18.68,12.49,35.23,30.41,40.34
			c17.92-5.11,30.41-21.66,30.41-40.34V76.4l-30.41-17.64L451.64,76.4z"/>
	</g>
	<g>
		<path class="st0" d="M477.76,107.18c-0.25,0-0.49-0.09-0.69-0.27l-11.31-10.68c-0.4-0.38-0.42-1.01-0.04-1.41
			c0.38-0.4,1.01-0.42,1.41-0.04l10.6,10.01l19.2-19.2c0.39-0.39,1.02-0.39,1.41,0s0.39,1.02,0,1.41l-19.89,19.89
			C478.27,107.09,478.01,107.18,477.76,107.18z"/>
	</g>
</g>
</svg>
