<?xml version="1.0" encoding="utf-8"?>
<!-- Generator: Adobe Illustrator 24.1.0, SVG Export Plug-In . SVG Version: 6.00 Build 0)  -->
<svg version="1.1" id="Layer_1" xmlns="http://www.w3.org/2000/svg" xmlns:xlink="http://www.w3.org/1999/xlink" x="0px" y="0px"
	 viewBox="0 0 30.8 60" style="enable-background:new 0 0 30.8 60;" xml:space="preserve">
<g>
	<g>
		<path d="M6.9,8.9h12.9c0.5,0,0.9-0.4,0.9-0.9c0-0.5-0.4-0.9-0.9-0.9H6.9c-1.9,0-3.4,1.5-3.4,3.4S5,14,6.9,14H24
			c1.9,0,3.4-1.5,3.4-3.4S25.9,7.1,24,7.1h-0.7c-0.5,0-0.9,0.4-0.9,0.9s0.4,0.9,0.9,0.9H24c0.9,0,1.7,0.7,1.7,1.7S25,12.3,24,12.3
			H6.9c-0.9,0-1.7-0.7-1.7-1.7S5.9,8.9,6.9,8.9z"/>
		<path d="M10.7,22.1c0,2.6,2.1,4.8,4.8,4.8c2.6,0,4.8-2.1,4.8-4.8s-2.1-4.8-4.8-4.8C12.8,17.4,10.7,19.5,10.7,22.1z M18.4,22.1
			c0,1.6-1.3,3-3,3c-1.6,0-3-1.3-3-3c0-1.6,1.3-3,3-3C17,19.1,18.4,20.5,18.4,22.1z"/>
		<path d="M4.5,49.9c-0.5,0-0.9,0.4-0.9,0.9v2.9c0,0.5,0.4,0.9,0.9,0.9s0.9-0.4,0.9-0.9v-2.9C5.4,50.3,5,49.9,4.5,49.9z"/>
		<path d="M8,50.8v2.9c0,0.5,0.4,0.9,0.9,0.9s0.9-0.4,0.9-0.9v-2.9c0-0.5-0.4-0.9-0.9-0.9S8,50.3,8,50.8z"/>
		<path d="M12.3,50.8v2.9c0,0.5,0.4,0.9,0.9,0.9s0.9-0.4,0.9-0.9v-2.9c0-0.5-0.4-0.9-0.9-0.9C12.7,49.9,12.3,50.3,12.3,50.8z"/>
		<path d="M16.7,50.8v2.9c0,0.5,0.4,0.9,0.9,0.9s0.9-0.4,0.9-0.9v-2.9c0-0.5-0.4-0.9-0.9-0.9S16.7,50.3,16.7,50.8z"/>
		<path d="M21,50.8v2.9c0,0.5,0.4,0.9,0.9,0.9s0.9-0.4,0.9-0.9v-2.9c0-0.5-0.4-0.9-0.9-0.9S21,50.3,21,50.8z"/>
		<path d="M25.4,53.6c0,0.5,0.4,0.9,0.9,0.9s0.9-0.4,0.9-0.9v-2.9c0-0.5-0.4-0.9-0.9-0.9s-0.9,0.4-0.9,0.9V53.6z"/>
		<path d="M12.3,40H6.8c-0.8,0-1.5,0.7-1.5,1.5v2.2c0,0.8,0.7,1.5,1.5,1.5h5.5c0.8,0,1.5-0.7,1.5-1.5v-2.2
			C13.7,40.7,13.1,40,12.3,40z M12,43.3H7.1v-1.5H12V43.3z"/>
		<path d="M24,40h-5.5c-0.8,0-1.5,0.7-1.5,1.5v2.2c0,0.8,0.7,1.5,1.5,1.5H24c0.8,0,1.5-0.7,1.5-1.5v-2.2C25.5,40.7,24.8,40,24,40z
			 M23.7,43.3h-4.8v-1.5h4.8V43.3z"/>
		<path d="M28.5,0C27.2,0,3.3,0,2.3,0C1,0,0,1,0,2.3v49.9c0,0.5,0.4,0.9,0.9,0.9s0.9-0.4,0.9-0.9V31c1.2,0.9,2.5,1.6,3.9,2.2
			c1.1,0.5,1.8-1.2,0.7-1.6c-1.6-0.7-3.2-1.7-4.6-2.8V2.3C1.8,2,2,1.8,2.3,1.8h26.2C28.8,1.8,29,2,29,2.3v26.5
			c-5.4,4.3-12.7,5.7-19.4,3.9c-0.5-0.1-1,0.2-1.1,0.6c-0.1,0.5,0.2,1,0.6,1.1C16,36.3,23.3,35,29,31v26.6c0,0.3-0.3,0.5-0.5,0.5
			H2.3c-0.3,0-0.5-0.3-0.5-0.5v-1.9c0-0.5-0.4-0.9-0.9-0.9S0,55.2,0,55.7v1.9C0,59,1,60,2.3,60h26.2c1.3,0,2.3-1,2.3-2.3
			c0-0.7,0-53.6,0-55.3C30.8,1,29.8,0,28.5,0z"/>
	</g>
</g>
</svg>
