<?xml version="1.0" encoding="utf-8"?>
<!-- Generator: Adobe Illustrator 24.1.0, SVG Export Plug-In . SVG Version: 6.00 Build 0)  -->
<svg version="1.1" id="Layer_1" xmlns="http://www.w3.org/2000/svg" xmlns:xlink="http://www.w3.org/1999/xlink" x="0px" y="0px"
	 viewBox="0 0 51.4 37.3" style="enable-background:new 0 0 51.4 37.3;" xml:space="preserve">
<g>
	<g>
		<g>
			<g>
				<path d="M50.7,30.4H48V3.1C48,1.4,46.6,0,44.9,0H6.3C4.6,0,3.2,1.4,3.2,3.1v27.3H0.8c-0.4,0-0.8,0.3-0.8,0.8v1.7
					c0,2.4,2,4.4,4.4,4.4h28.8c0.4,0,0.8-0.3,0.8-0.8c0-0.4-0.3-0.8-0.8-0.8H4.4c-1.6,0-2.9-1.3-2.9-2.9v-0.9H4h15.6
					c0,1.5,1.2,2.7,2.7,2.7h6.9c1.5,0,2.7-1.2,2.7-2.7h15.3h2.7v0.9c0,1.6-1.3,2.9-2.9,2.9H36.8c-0.4,0-0.8,0.3-0.8,0.8
					c0,0.4,0.3,0.8,0.8,0.8H47c2.4,0,4.4-2,4.4-4.4v-1.7C51.4,30.7,51.1,30.4,50.7,30.4z M29.2,33.1h-6.9c-0.6,0-1.2-0.5-1.2-1.1
					h9.3C30.4,32.6,29.8,33.1,29.2,33.1z M46.5,30.4H4.7V3.1c0-0.9,0.7-1.6,1.6-1.6h38.6c0.9,0,1.6,0.7,1.6,1.6
					C46.5,3.1,46.5,30.4,46.5,30.4z"/>
			</g>
		</g>
		<g>
			<g>
				<path d="M44.4,2.9H14.8c-0.4,0-0.8,0.3-0.8,0.8s0.3,0.8,0.8,0.8h28.8v23.2h-36V4.4h3.6C11.6,4.4,12,4,12,3.6s-0.3-0.8-0.8-0.8
					H6.8C6.4,2.8,6,3.1,6,3.6v24.7c0,0.4,0.3,0.8,0.8,0.8h37.5c0.4,0,0.8-0.3,0.8-0.8V3.6C45.1,3.2,44.8,2.9,44.4,2.9z"/>
			</g>
		</g>
	</g>
</g>
</svg>
